HIERARCHY
ROOT pelvis
{
	OFFSET 0.000000 0.683133 -0.000000
	CHANNELS 6 Xposition Yposition Zposition Xrotation Yrotation Zrotation
	JOINT spine
	{
		OFFSET 0.000000 0.000000 0.000000
		CHANNELS 6 Xposition Yposition Zposition Xrotation Yrotation Zrotation
		JOINT spine.001
		{
			OFFSET 0.000000 0.247335 0.012962
			CHANNELS 3 Xrotation Yrotation Zrotation
			JOINT neck
			{
				OFFSET 0.000000 0.245828 -0.030184
				CHANNELS 6 Xposition Yposition Zposition Xrotation Yrotation Zrotation
				JOINT face
				{
					OFFSET 0.000000 0.180348 -0.003148
					CHANNELS 6 Xposition Yposition Zposition Xrotation Yrotation Zrotation
					End Site
					{
						OFFSET 0.000000 -0.007062 0.030678
					}
				}
			}
			JOINT shoulder.L
			{
				OFFSET 0.000000 0.245828 -0.030184
				CHANNELS 6 Xposition Yposition Zposition Yrotation Xrotation Zrotation
				JOINT upper_arm.L
				{
					OFFSET 0.147288 0.000000 0.000000
					CHANNELS 6 Xposition Yposition Zposition Xrotation Yrotation Zrotation
					JOINT forearm.L
					{
						OFFSET 0.252364 0.000881 -0.000106
						CHANNELS 6 Xposition Yposition Zposition Xrotation Yrotation Zrotation
						End Site
						{
							OFFSET 0.224376 -0.001214 0.003819
						}
					}
				}
			}
			JOINT shoulder.R
			{
				OFFSET 0.000000 0.245828 -0.030184
				CHANNELS 6 Xposition Yposition Zposition Yrotation Xrotation Zrotation
				JOINT upper_arm.R
				{
					OFFSET -0.147288 0.000000 0.000000
					CHANNELS 6 Xposition Yposition Zposition Xrotation Yrotation Zrotation
					JOINT forearm.R
					{
						OFFSET -0.227653 0.000881 -0.000106
						CHANNELS 6 Xposition Yposition Zposition Xrotation Yrotation Zrotation
						End Site
						{
							OFFSET -0.219244 -0.001213 0.003729
						}
					}
				}
			}
		}
	}
	JOINT pelvis.L
	{
		OFFSET 0.000000 0.000000 0.000000
		CHANNELS 6 Xposition Yposition Zposition Yrotation Xrotation Zrotation
		End Site
		{
			OFFSET 0.101599 0.000000 0.000000
		}
	}
	JOINT pelvis.R
	{
		OFFSET 0.000000 0.000000 0.000000
		CHANNELS 6 Xposition Yposition Zposition Yrotation Xrotation Zrotation
		End Site
		{
			OFFSET -0.101599 0.000000 0.000000
		}
	}
	JOINT thigh.L
	{
		OFFSET 0.101599 0.000000 0.000000
		CHANNELS 6 Xposition Yposition Zposition Xrotation Yrotation Zrotation
		JOINT shin.L
		{
			OFFSET 0.017982 -0.343108 0.000000
			CHANNELS 6 Xposition Yposition Zposition Xrotation Yrotation Zrotation
			JOINT foot.L
			{
				OFFSET 0.014458 -0.275882 0.000000
				CHANNELS 6 Xposition Yposition Zposition Xrotation Yrotation Zrotation
				End Site
				{
					OFFSET 0.013897 -0.059499 0.141691
				}
			}
		}
	}
	JOINT thigh.R
	{
		OFFSET -0.101599 0.000000 0.000000
		CHANNELS 6 Xposition Yposition Zposition Xrotation Yrotation Zrotation
		JOINT shin.R
		{
			OFFSET -0.017912 -0.341775 0.000000
			CHANNELS 6 Xposition Yposition Zposition Xrotation Yrotation Zrotation
			JOINT foot.R
			{
				OFFSET -0.014678 -0.280077 0.000000
				CHANNELS 6 Xposition Yposition Zposition Xrotation Yrotation Zrotation
				End Site
				{
					OFFSET -0.014620 -0.062597 0.149070
				}
			}
		}
	}
}
MOTION
Frames: 5
Frame Time: 0.041667
-0.029177 -0.008703 0.016380 -0.000000 3.065000 -0.000000 -0.000000 -0.000000 0.000000 -4.615260 0.073662 -0.792897 10.014364 3.664940 -0.450621 -0.000000 0.245828 -0.030184 -4.316795 -13.773328 0.765696 0.000000 0.180348 -0.003148 12.658493 0.000003 0.000000 -0.000000 0.245828 -0.030184 0.324381 -0.007485 2.643326 0.147288 -0.000000 -0.000000 -80.919491 -61.553931 -110.520377 0.252364 0.000881 -0.000106 -75.592996 -60.046563 -107.084805 -0.000000 0.245828 -0.030184 0.317826 -0.007185 2.589957 -0.147288 -0.000000 -0.000000 -35.205674 48.335329 70.921153 -0.227653 0.000881 -0.000106 -67.865402 55.334187 104.830303 -0.000000 0.000000 0.000000 0.000006 -0.000000 0.011529 -0.000000 0.000000 0.000000 0.000000 -0.000000 0.011496 0.101599 0.000020 -0.000000 3.789383 0.144665 -1.629086 0.017982 -0.343108 0.000000 2.765714 0.156241 0.465375 0.014458 -0.275882 0.000000 -8.898041 3.198183 2.542377 -0.101599 -0.000020 -0.000000 6.467868 0.003583 6.063439 -0.017912 -0.341775 0.000000 1.003873 -0.023286 3.342330 -0.014678 -0.280077 0.000000 -13.624193 -13.086088 -8.755979 
-0.029499 -0.008005 0.016251 -0.000000 1.308054 -0.000000 -0.000000 0.000000 0.000000 -4.560840 0.070462 -0.762370 10.024199 4.745873 -0.584070 -0.000000 0.245829 -0.030184 -4.639785 -12.221824 0.546583 -0.000000 0.180348 -0.003148 12.935167 -0.000003 -0.000000 -0.000000 0.245828 -0.030184 0.268798 -0.005138 2.189983 0.147288 0.000000 0.000000 -81.547719 -61.888890 -110.760171 0.252364 0.000881 -0.000106 -76.950270 -58.028379 -110.709969 0.000000 0.245828 -0.030184 0.262274 -0.004894 2.136655 -0.147288 0.000000 -0.000000 -38.922680 50.145046 74.526407 -0.227653 0.000881 -0.000106 -65.167135 55.418878 101.871295 -0.000000 -0.000000 0.000000 0.000017 -0.000000 0.502459 -0.000000 0.000000 0.000000 0.000000 -0.000000 0.502493 0.101595 0.000891 0.000000 4.108727 0.159526 -1.555059 0.017982 -0.343108 0.000000 2.688756 0.149432 0.360988 0.014458 -0.275882 0.000000 -8.949350 4.313953 3.119872 -0.101595 -0.000891 0.000000 5.974731 -0.004625 5.911301 -0.017912 -0.341775 0.000000 1.858242 -0.046041 3.161643 -0.014678 -0.280077 0.000000 -14.089018 -10.768574 -7.571022 
-0.029845 -0.007530 0.016066 -0.000000 0.278928 -0.000000 -0.000000 0.000000 0.000000 -4.484102 0.071369 -0.777934 10.031354 5.403676 -0.665490 -0.000000 0.245829 -0.030184 -5.014026 -11.298490 0.368970 0.000000 0.180348 -0.003148 13.229907 -0.000005 -0.000000 0.000000 0.245828 -0.030184 0.218831 -0.003407 1.783024 0.147288 0.000000 0.000000 -81.259286 -61.847363 -110.530745 0.252364 0.000881 -0.000106 -75.473823 -56.167439 -111.442692 0.000000 0.245829 -0.030184 0.212310 -0.003209 1.729694 -0.147288 -0.000000 -0.000000 -40.976214 50.774390 76.831131 -0.227653 0.000881 -0.000106 -63.398444 55.642635 99.669413 0.000000 0.000000 0.000000 -0.000024 0.000000 0.829203 0.000000 0.000000 0.000000 0.000000 0.000000 0.829203 0.101589 0.001470 0.000000 4.274809 0.167349 -1.518448 0.017982 -0.343108 0.000000 2.665247 0.147430 0.331014 0.014458 -0.275882 0.000000 -8.941869 4.939956 3.438263 -0.101589 -0.001470 -0.000000 5.660862 -0.005190 5.894963 -0.017912 -0.341775 0.000000 2.405903 -0.063761 2.964201 -0.014678 -0.280077 -0.000000 -14.375351 -9.356715 -6.837171 
-0.030193 -0.007406 0.015837 -0.000000 -0.024104 0.000000 -0.000000 -0.000000 0.000000 -4.404489 0.076033 -0.835083 10.033580 5.589362 -0.688495 -0.000000 0.245828 -0.030184 -5.394514 -10.893493 0.215637 -0.000000 0.180349 -0.003148 13.512389 -0.000002 0.000000 0.000000 0.245828 -0.030184 0.179860 -0.002299 1.465793 0.147288 0.000000 0.000000 -80.393669 -61.600677 -109.969188 0.252364 0.000881 -0.000106 -72.683506 -54.874676 -110.263425 -0.000000 0.245828 -0.030184 0.173332 -0.002139 1.412511 -0.147288 0.000000 -0.000000 -41.139220 50.317621 77.647981 -0.227653 0.000881 -0.000106 -62.780005 55.959456 98.592339 -0.000000 -0.000000 0.000000 0.000047 -0.000001 0.949050 0.000000 0.000000 0.000000 -0.000000 0.000000 0.949083 0.101585 0.001683 0.000000 4.294401 0.168521 -1.507642 0.017982 -0.343108 0.000000 2.683977 0.149520 0.375894 0.014458 -0.275882 0.000000 -8.885817 5.074237 3.497782 -0.101585 -0.001683 -0.000000 5.541114 -0.001527 5.968385 -0.017912 -0.341775 0.000000 2.620485 -0.072762 2.819605 -0.014678 -0.280077 0.000000 -14.449692 -8.884190 -6.584789 
-0.030511 -0.007553 0.015621 -0.000000 -0.126914 0.000000 -0.000000 -0.000000 0.000000 -4.351668 0.081578 -0.900583 10.033554 5.584106 -0.687834 0.000000 0.245828 -0.030184 -5.692328 -10.514794 0.061700 -0.000000 0.180349 -0.003148 13.727505 0.000000 0.000000 0.000000 0.245828 -0.030184 0.151032 -0.001617 1.230642 0.147288 0.000000 -0.000000 -79.848593 -61.547265 -109.504304 0.252364 0.000881 -0.000106 -71.215848 -54.236275 -109.583179 0.000000 0.245828 -0.030184 0.144510 -0.001480 1.177266 -0.147288 -0.000000 -0.000000 -40.636272 49.514265 77.921612 -0.227653 0.000881 -0.000106 -62.785032 56.064235 98.467907 -0.000000 -0.000000 0.000000 0.000005 -0.000000 0.948579 -0.000000 0.000000 0.000000 0.000000 -0.000000 0.948612 0.101585 0.001682 0.000000 4.290669 0.168317 -1.509123 0.017982 -0.343108 0.000000 2.687401 0.151357 0.445799 0.014458 -0.275882 0.000000 -8.841857 5.076304 3.491778 -0.101585 -0.001682 0.000000 5.501446 0.001385 6.028795 -0.017912 -0.341775 0.000000 2.676631 -0.075903 2.751793 -0.014678 -0.280077 0.000000 -14.420850 -8.741059 -6.497341 
